<mxfile host="65bd71144e">
    <diagram id="LQAXXgF4HWlI1jR32HYM" name="ページ1">
        <mxGraphModel dx="735" dy="376" grid="1" gridSize="10" guides="1" tooltips="1" connect="1" arrows="1" fold="1" page="1" pageScale="1" pageWidth="827" pageHeight="1169" math="0" shadow="0">
            <root>
                <mxCell id="0"/>
                <mxCell id="1" parent="0"/>
                <mxCell id="2" value="" style="rounded=1;whiteSpace=wrap;html=1;shadow=0;" parent="1" vertex="1">
                    <mxGeometry x="130" y="480.5" width="370" height="260" as="geometry"/>
                </mxCell>
                <mxCell id="3" value="操作選択" style="text;html=1;align=center;verticalAlign=middle;resizable=0;points=[];autosize=1;strokeColor=none;fillColor=none;" parent="1" vertex="1">
                    <mxGeometry x="160" y="428.5" width="70" height="30" as="geometry"/>
                </mxCell>
                <mxCell id="4" value="" style="rounded=1;whiteSpace=wrap;html=1;shadow=0;" parent="1" vertex="1">
                    <mxGeometry x="130" y="82" width="370" height="260" as="geometry"/>
                </mxCell>
                <mxCell id="5" value="初期画面" style="text;html=1;align=center;verticalAlign=middle;resizable=0;points=[];autosize=1;strokeColor=none;fillColor=none;" parent="1" vertex="1">
                    <mxGeometry x="160" y="30" width="70" height="30" as="geometry"/>
                </mxCell>
                <mxCell id="8" value="" style="rounded=0;whiteSpace=wrap;html=1;fillColor=#dae8fc;strokeColor=#6c8ebf;" parent="1" vertex="1">
                    <mxGeometry x="245" y="100" width="125" height="50" as="geometry"/>
                </mxCell>
                <mxCell id="6" value="ユーザー名" style="text;html=1;align=center;verticalAlign=middle;resizable=0;points=[];autosize=1;strokeColor=none;fillColor=none;" parent="1" vertex="1">
                    <mxGeometry x="267.5" y="110" width="80" height="30" as="geometry"/>
                </mxCell>
                <mxCell id="9" value="" style="rounded=0;whiteSpace=wrap;html=1;fillColor=#dae8fc;strokeColor=#6c8ebf;" parent="1" vertex="1">
                    <mxGeometry x="245" y="187" width="125" height="50" as="geometry"/>
                </mxCell>
                <mxCell id="10" value="パスワード" style="text;html=1;align=center;verticalAlign=middle;resizable=0;points=[];autosize=1;strokeColor=none;fillColor=none;" parent="1" vertex="1">
                    <mxGeometry x="267.5" y="197" width="80" height="30" as="geometry"/>
                </mxCell>
                <mxCell id="11" value="新規登録は&lt;br&gt;こちら" style="ellipse;whiteSpace=wrap;html=1;" parent="1" vertex="1">
                    <mxGeometry x="210" y="290" width="85" height="43" as="geometry"/>
                </mxCell>
                <mxCell id="12" value="ログイン" style="ellipse;whiteSpace=wrap;html=1;" parent="1" vertex="1">
                    <mxGeometry x="320" y="290" width="85" height="43" as="geometry"/>
                </mxCell>
                <mxCell id="13" value="タスク作成" style="rounded=1;whiteSpace=wrap;html=1;fillColor=#d5e8d4;strokeColor=#82b366;" parent="1" vertex="1">
                    <mxGeometry x="237.5" y="618.5" width="140" height="80" as="geometry"/>
                </mxCell>
                <mxCell id="14" value="タスク一覧" style="rounded=1;whiteSpace=wrap;html=1;fillColor=#d5e8d4;strokeColor=#82b366;" parent="1" vertex="1">
                    <mxGeometry x="233.75" y="508.5" width="147.5" height="80" as="geometry"/>
                </mxCell>
                <mxCell id="17" value="" style="rounded=1;whiteSpace=wrap;html=1;shadow=0;" parent="1" vertex="1">
                    <mxGeometry x="130" y="892" width="370" height="260" as="geometry"/>
                </mxCell>
                <mxCell id="18" value="タスク一覧" style="text;html=1;align=center;verticalAlign=middle;resizable=0;points=[];autosize=1;strokeColor=none;fillColor=none;" parent="1" vertex="1">
                    <mxGeometry x="155" y="840" width="80" height="30" as="geometry"/>
                </mxCell>
                <mxCell id="22" value="タスク名&lt;br&gt;作成時間" style="whiteSpace=wrap;html=1;fillColor=#e1d5e7;strokeColor=#9673a6;" parent="1" vertex="1">
                    <mxGeometry x="175" y="975" width="120" height="60" as="geometry"/>
                </mxCell>
                <mxCell id="23" value="タスク名&lt;br&gt;作成時間" style="whiteSpace=wrap;html=1;fillColor=#6CC4FF;strokeColor=#9673a6;" parent="1" vertex="1">
                    <mxGeometry x="320" y="975" width="120" height="60" as="geometry"/>
                </mxCell>
                <mxCell id="24" value="タスク名&lt;br&gt;作成時間" style="whiteSpace=wrap;html=1;fillColor=#e1d5e7;strokeColor=#9673a6;" parent="1" vertex="1">
                    <mxGeometry x="175" y="1065" width="120" height="60" as="geometry"/>
                </mxCell>
                <mxCell id="25" value="タスク名&lt;br&gt;作成時間" style="whiteSpace=wrap;html=1;fillColor=#e1d5e7;strokeColor=#9673a6;" parent="1" vertex="1">
                    <mxGeometry x="320" y="1065" width="120" height="60" as="geometry"/>
                </mxCell>
                <mxCell id="27" value="&lt;font style=&quot;font-size: 8px;&quot;&gt;タスク読み込み&lt;/font&gt;" style="rounded=1;whiteSpace=wrap;html=1;fillColor=#d5e8d4;strokeColor=#82b366;align=right;" parent="1" vertex="1">
                    <mxGeometry x="460" y="840" width="90" height="40" as="geometry"/>
                </mxCell>
                <mxCell id="34" value="" style="html=1;verticalLabelPosition=bottom;align=center;labelBackgroundColor=#ffffff;verticalAlign=top;strokeWidth=2;strokeColor=#0080F0;shadow=0;dashed=0;shape=mxgraph.ios7.icons.up;" parent="1" vertex="1">
                    <mxGeometry x="467.5" y="847.25" width="21" height="25.5" as="geometry"/>
                </mxCell>
                <mxCell id="35" value="&lt;font style=&quot;font-size: 8px;&quot;&gt;タスク保存&lt;/font&gt;" style="rounded=1;whiteSpace=wrap;html=1;fillColor=#d5e8d4;strokeColor=#82b366;align=right;" parent="1" vertex="1">
                    <mxGeometry x="40" y="870" width="72.5" height="40" as="geometry"/>
                </mxCell>
                <mxCell id="33" value="" style="html=1;verticalLabelPosition=bottom;align=center;labelBackgroundColor=#ffffff;verticalAlign=top;strokeWidth=2;strokeColor=#0080F0;shadow=0;dashed=0;shape=mxgraph.ios7.icons.down;" parent="1" vertex="1">
                    <mxGeometry x="47" y="878.62" width="21" height="22.75" as="geometry"/>
                </mxCell>
                <mxCell id="37" value="&lt;font style=&quot;font-size: 8px;&quot;&gt;タスク編集&lt;/font&gt;" style="rounded=1;whiteSpace=wrap;html=1;fillColor=#d5e8d4;strokeColor=#82b366;align=right;" parent="1" vertex="1">
                    <mxGeometry x="272.95" y="830" width="77.5" height="40" as="geometry"/>
                </mxCell>
                <mxCell id="38" value="" style="html=1;verticalLabelPosition=bottom;align=center;labelBackgroundColor=#ffffff;verticalAlign=top;strokeWidth=2;strokeColor=#0080F0;shadow=0;dashed=0;shape=mxgraph.ios7.icons.compose;" parent="1" vertex="1">
                    <mxGeometry x="283.84999999999997" y="835.45" width="29.099999999999998" height="29.099999999999998" as="geometry"/>
                </mxCell>
                <mxCell id="39" value="" style="rounded=1;whiteSpace=wrap;html=1;shadow=0;" parent="1" vertex="1">
                    <mxGeometry x="130" y="1330" width="370" height="266" as="geometry"/>
                </mxCell>
                <mxCell id="40" value="タスク編集選択" style="text;html=1;align=center;verticalAlign=middle;resizable=0;points=[];autosize=1;strokeColor=none;fillColor=none;" parent="1" vertex="1">
                    <mxGeometry x="140" y="1285" width="110" height="30" as="geometry"/>
                </mxCell>
                <mxCell id="41" value="タスク名&lt;br&gt;作成時間" style="whiteSpace=wrap;html=1;fillColor=#e1d5e7;strokeColor=#9673a6;" parent="1" vertex="1">
                    <mxGeometry x="175" y="1410" width="120" height="60" as="geometry"/>
                </mxCell>
                <mxCell id="43" value="タスク名&lt;br&gt;作成時間" style="whiteSpace=wrap;html=1;fillColor=#e1d5e7;strokeColor=#9673a6;" parent="1" vertex="1">
                    <mxGeometry x="175" y="1500" width="120" height="60" as="geometry"/>
                </mxCell>
                <mxCell id="44" value="タスク名&lt;br&gt;作成時間" style="whiteSpace=wrap;html=1;fillColor=#e1d5e7;strokeColor=#9673a6;" parent="1" vertex="1">
                    <mxGeometry x="325" y="1500" width="120" height="60" as="geometry"/>
                </mxCell>
                <mxCell id="45" value="&lt;font style=&quot;font-size: 8px;&quot;&gt;タスク読み込み&lt;/font&gt;" style="rounded=1;whiteSpace=wrap;html=1;fillColor=#d5e8d4;strokeColor=#82b366;align=right;" parent="1" vertex="1">
                    <mxGeometry x="467.5" y="1734" width="90" height="40" as="geometry"/>
                </mxCell>
                <mxCell id="46" value="" style="html=1;verticalLabelPosition=bottom;align=center;labelBackgroundColor=#ffffff;verticalAlign=top;strokeWidth=2;strokeColor=#0080F0;shadow=0;dashed=0;shape=mxgraph.ios7.icons.up;" parent="1" vertex="1">
                    <mxGeometry x="475" y="1741.25" width="21" height="25.5" as="geometry"/>
                </mxCell>
                <mxCell id="47" value="&lt;font style=&quot;font-size: 8px;&quot;&gt;タスク保存&lt;/font&gt;" style="rounded=1;whiteSpace=wrap;html=1;fillColor=#d5e8d4;strokeColor=#82b366;align=right;" parent="1" vertex="1">
                    <mxGeometry x="275" y="1734" width="72.5" height="40" as="geometry"/>
                </mxCell>
                <mxCell id="48" value="" style="html=1;verticalLabelPosition=bottom;align=center;labelBackgroundColor=#ffffff;verticalAlign=top;strokeWidth=2;strokeColor=#0080F0;shadow=0;dashed=0;shape=mxgraph.ios7.icons.down;" parent="1" vertex="1">
                    <mxGeometry x="282" y="1742.62" width="21" height="22.75" as="geometry"/>
                </mxCell>
                <mxCell id="49" value="&lt;font style=&quot;font-size: 8px;&quot;&gt;編集確定&lt;/font&gt;" style="rounded=1;whiteSpace=wrap;html=1;fillColor=#d5e8d4;strokeColor=#82b366;align=right;" parent="1" vertex="1">
                    <mxGeometry x="270" y="1335" width="77.5" height="40" as="geometry"/>
                </mxCell>
                <mxCell id="52" value="" style="html=1;verticalLabelPosition=bottom;labelBackgroundColor=#ffffff;verticalAlign=top;shadow=0;dashed=0;strokeWidth=2;shape=mxgraph.ios7.misc.select;fillColor=#0080f0;strokeColor=#ffffff;sketch=0;" parent="1" vertex="1">
                    <mxGeometry x="275" y="1346.37" width="25" height="21.38" as="geometry"/>
                </mxCell>
                <mxCell id="68" value="" style="html=1;verticalLabelPosition=bottom;align=center;labelBackgroundColor=#ffffff;verticalAlign=top;strokeWidth=2;strokeColor=#0080F0;shadow=0;dashed=0;shape=mxgraph.ios7.icons.compose;" parent="1" vertex="1">
                    <mxGeometry x="47" y="1567" width="29.099999999999998" height="29.099999999999998" as="geometry"/>
                </mxCell>
                <mxCell id="70" value="" style="html=1;verticalLabelPosition=bottom;align=center;labelBackgroundColor=#ffffff;verticalAlign=top;strokeWidth=2;strokeColor=#0080F0;shadow=0;dashed=0;shape=mxgraph.ios7.icons.compose;" parent="1" vertex="1">
                    <mxGeometry x="204.05" y="1657.9" width="29.099999999999998" height="29.099999999999998" as="geometry"/>
                </mxCell>
                <mxCell id="71" value="" style="html=1;verticalLabelPosition=bottom;align=center;labelBackgroundColor=#ffffff;verticalAlign=top;strokeWidth=2;strokeColor=#0080F0;shadow=0;dashed=0;shape=mxgraph.ios7.icons.compose;" parent="1" vertex="1">
                    <mxGeometry x="49.05000000000001" y="1657.9" width="29.099999999999998" height="29.099999999999998" as="geometry"/>
                </mxCell>
                <mxCell id="91" value="" style="rounded=1;whiteSpace=wrap;html=1;shadow=0;" parent="1" vertex="1">
                    <mxGeometry x="1020" y="1406.37" width="370" height="260" as="geometry"/>
                </mxCell>
                <mxCell id="92" value="タスク編集" style="text;html=1;align=center;verticalAlign=middle;resizable=0;points=[];autosize=1;strokeColor=none;fillColor=none;" parent="1" vertex="1">
                    <mxGeometry x="1045" y="1346.37" width="80" height="30" as="geometry"/>
                </mxCell>
                <mxCell id="93" value="タスク名&lt;br&gt;タスク内容&lt;div&gt;タスクジャンル&lt;/div&gt;&lt;div&gt;進捗度&lt;/div&gt;&lt;div&gt;期日&lt;/div&gt;" style="whiteSpace=wrap;html=1;fillColor=#e1d5e7;strokeColor=#9673a6;" parent="1" vertex="1">
                    <mxGeometry x="1064.1" y="1436.37" width="195.9" height="210" as="geometry"/>
                </mxCell>
                <mxCell id="101" value="&lt;font style=&quot;font-size: 8px;&quot;&gt;編集確定&lt;/font&gt;" style="rounded=1;whiteSpace=wrap;html=1;fillColor=#d5e8d4;strokeColor=#82b366;align=right;" parent="1" vertex="1">
                    <mxGeometry x="1288.5" y="1445.7399999999998" width="77.5" height="40" as="geometry"/>
                </mxCell>
                <mxCell id="102" value="" style="html=1;verticalLabelPosition=bottom;labelBackgroundColor=#ffffff;verticalAlign=top;shadow=0;dashed=0;strokeWidth=2;shape=mxgraph.ios7.misc.select;fillColor=#0080f0;strokeColor=#ffffff;sketch=0;" parent="1" vertex="1">
                    <mxGeometry x="1294" y="1455.6799999999998" width="25" height="21.38" as="geometry"/>
                </mxCell>
                <mxCell id="105" value="ゴミ箱" style="html=1;verticalLabelPosition=bottom;align=center;labelBackgroundColor=#ffffff;verticalAlign=top;strokeWidth=2;strokeColor=#0080F0;shadow=0;dashed=0;shape=mxgraph.ios7.icons.box;" parent="1" vertex="1">
                    <mxGeometry x="1315" y="1586.37" width="35" height="40" as="geometry"/>
                </mxCell>
                <mxCell id="141" value="ゴミ箱" style="html=1;verticalLabelPosition=bottom;align=center;labelBackgroundColor=#ffffff;verticalAlign=top;strokeWidth=2;strokeColor=#0080F0;shadow=0;dashed=0;shape=mxgraph.ios7.icons.box;" parent="1" vertex="1">
                    <mxGeometry x="310" y="1544" width="30" height="23" as="geometry"/>
                </mxCell>
                <mxCell id="142" value="ゴミ箱" style="html=1;verticalLabelPosition=bottom;align=center;labelBackgroundColor=#ffffff;verticalAlign=top;strokeWidth=2;strokeColor=#0080F0;shadow=0;dashed=0;shape=mxgraph.ios7.icons.box;" parent="1" vertex="1">
                    <mxGeometry x="170" y="1450.5" width="30" height="23" as="geometry"/>
                </mxCell>
                <mxCell id="143" value="ゴミ箱" style="html=1;verticalLabelPosition=bottom;align=center;labelBackgroundColor=#ffffff;verticalAlign=top;strokeWidth=2;strokeColor=#0080F0;shadow=0;dashed=0;shape=mxgraph.ios7.icons.box;" parent="1" vertex="1">
                    <mxGeometry x="170" y="1544" width="30" height="23" as="geometry"/>
                </mxCell>
                <mxCell id="145" value="" style="shape=flexArrow;endArrow=classic;html=1;" parent="1" edge="1">
                    <mxGeometry width="50" height="50" relative="1" as="geometry">
                        <mxPoint x="540" y="1021" as="sourcePoint"/>
                        <mxPoint x="700" y="1021" as="targetPoint"/>
                    </mxGeometry>
                </mxCell>
                <mxCell id="152" value="" style="rounded=1;whiteSpace=wrap;html=1;shadow=0;" parent="1" vertex="1">
                    <mxGeometry x="780" y="892" width="370" height="260" as="geometry"/>
                </mxCell>
                <mxCell id="153" value="タスク個別表示" style="text;html=1;align=center;verticalAlign=middle;resizable=0;points=[];autosize=1;strokeColor=none;fillColor=none;" parent="1" vertex="1">
                    <mxGeometry x="790" y="832" width="110" height="30" as="geometry"/>
                </mxCell>
                <mxCell id="154" value="タスク名&lt;br&gt;タスク内容&lt;div&gt;タスクジャンル&lt;/div&gt;&lt;div&gt;進捗度&lt;/div&gt;&lt;div&gt;期日&lt;/div&gt;" style="whiteSpace=wrap;html=1;fillColor=#e1d5e7;strokeColor=#9673a6;" parent="1" vertex="1">
                    <mxGeometry x="824.1" y="922" width="195.9" height="210" as="geometry"/>
                </mxCell>
                <mxCell id="155" value="&lt;span style=&quot;font-size: 8px;&quot;&gt;タスク編集&lt;/span&gt;" style="rounded=1;whiteSpace=wrap;html=1;fillColor=#d5e8d4;strokeColor=#82b366;align=right;" parent="1" vertex="1">
                    <mxGeometry x="1180" y="921.9999999999999" width="77.5" height="40" as="geometry"/>
                </mxCell>
                <mxCell id="157" value="ゴミ箱" style="html=1;verticalLabelPosition=bottom;align=center;labelBackgroundColor=#ffffff;verticalAlign=top;strokeWidth=2;strokeColor=#0080F0;shadow=0;dashed=0;shape=mxgraph.ios7.icons.box;" parent="1" vertex="1">
                    <mxGeometry x="1075" y="1072" width="35" height="40" as="geometry"/>
                </mxCell>
                <mxCell id="161" value="" style="html=1;verticalLabelPosition=bottom;align=center;labelBackgroundColor=#ffffff;verticalAlign=top;strokeWidth=2;strokeColor=#0080F0;shadow=0;dashed=0;shape=mxgraph.ios7.icons.compose;" parent="1" vertex="1">
                    <mxGeometry x="1183" y="925" width="29.099999999999998" height="29.099999999999998" as="geometry"/>
                </mxCell>
                <mxCell id="162" value="50%" style="text;html=1;align=center;verticalAlign=middle;resizable=0;points=[];autosize=1;strokeColor=none;fillColor=none;" parent="1" vertex="1">
                    <mxGeometry x="205.50000000000003" y="1010" width="50" height="30" as="geometry"/>
                </mxCell>
                <mxCell id="163" value="100%" style="text;html=1;align=center;verticalAlign=middle;resizable=0;points=[];autosize=1;strokeColor=none;fillColor=none;" parent="1" vertex="1">
                    <mxGeometry x="360.5" y="1010" width="50" height="30" as="geometry"/>
                </mxCell>
                <mxCell id="164" value="30%" style="text;html=1;align=center;verticalAlign=middle;resizable=0;points=[];autosize=1;strokeColor=none;fillColor=none;" parent="1" vertex="1">
                    <mxGeometry x="211.4" y="1102" width="50" height="30" as="geometry"/>
                </mxCell>
                <mxCell id="165" value="10%" style="text;html=1;align=center;verticalAlign=middle;resizable=0;points=[];autosize=1;strokeColor=none;fillColor=none;" parent="1" vertex="1">
                    <mxGeometry x="356.4" y="1102" width="50" height="30" as="geometry"/>
                </mxCell>
                <mxCell id="167" value="" style="shape=flexArrow;endArrow=classic;html=1;" parent="1" edge="1">
                    <mxGeometry width="50" height="50" relative="1" as="geometry">
                        <mxPoint x="570" y="618.5" as="sourcePoint"/>
                        <mxPoint x="730" y="618.5" as="targetPoint"/>
                    </mxGeometry>
                </mxCell>
                <mxCell id="168" value="" style="rounded=1;whiteSpace=wrap;html=1;shadow=0;" parent="1" vertex="1">
                    <mxGeometry x="780" y="480.5" width="370" height="260" as="geometry"/>
                </mxCell>
                <mxCell id="171" value="タスク名" style="whiteSpace=wrap;html=1;" parent="1" vertex="1">
                    <mxGeometry x="830" y="500" width="180" height="36.5" as="geometry"/>
                </mxCell>
                <mxCell id="172" value="タスク内容" style="whiteSpace=wrap;html=1;" parent="1" vertex="1">
                    <mxGeometry x="830" y="550" width="180" height="50" as="geometry"/>
                </mxCell>
                <mxCell id="173" value="タスクジャンル" style="whiteSpace=wrap;html=1;" parent="1" vertex="1">
                    <mxGeometry x="830" y="606" width="180" height="36.5" as="geometry"/>
                </mxCell>
                <mxCell id="174" value="タスク進捗度" style="whiteSpace=wrap;html=1;" parent="1" vertex="1">
                    <mxGeometry x="830" y="650" width="180" height="36.5" as="geometry"/>
                </mxCell>
                <mxCell id="175" value="タスク作成画面" style="text;html=1;align=center;verticalAlign=middle;resizable=0;points=[];autosize=1;strokeColor=none;fillColor=none;" parent="1" vertex="1">
                    <mxGeometry x="829" y="438" width="110" height="30" as="geometry"/>
                </mxCell>
                <mxCell id="176" value="タスク期日" style="whiteSpace=wrap;html=1;" parent="1" vertex="1">
                    <mxGeometry x="830" y="691" width="183" height="36.5" as="geometry"/>
                </mxCell>
                <mxCell id="178" value="&lt;font style=&quot;font-size: 8px;&quot;&gt;タスク保存&lt;/font&gt;" style="rounded=1;whiteSpace=wrap;html=1;fillColor=#d5e8d4;strokeColor=#82b366;align=right;" parent="1" vertex="1">
                    <mxGeometry x="1045" y="536.5" width="72.5" height="40" as="geometry"/>
                </mxCell>
                <mxCell id="179" value="" style="html=1;verticalLabelPosition=bottom;align=center;labelBackgroundColor=#ffffff;verticalAlign=top;strokeWidth=2;strokeColor=#0080F0;shadow=0;dashed=0;shape=mxgraph.ios7.icons.down;" parent="1" vertex="1">
                    <mxGeometry x="1054" y="545.12" width="21" height="22.75" as="geometry"/>
                </mxCell>
                <mxCell id="180" value="戻る" style="text;html=1;align=center;verticalAlign=middle;resizable=0;points=[];autosize=1;strokeColor=none;fillColor=none;" parent="1" vertex="1">
                    <mxGeometry x="1056.25" y="680" width="50" height="30" as="geometry"/>
                </mxCell>
                <mxCell id="182" value="まとめて削除" style="rounded=1;whiteSpace=wrap;html=1;fillColor=#d5e8d4;strokeColor=#82b366;" vertex="1" parent="1">
                    <mxGeometry x="271.25" y="901.37" width="87.5" height="38.5" as="geometry"/>
                </mxCell>
                <mxCell id="183" value="50%" style="text;html=1;align=center;verticalAlign=middle;resizable=0;points=[];autosize=1;strokeColor=none;fillColor=none;" vertex="1" parent="1">
                    <mxGeometry x="209.00000000000003" y="1445" width="50" height="30" as="geometry"/>
                </mxCell>
                <mxCell id="185" value="30%" style="text;html=1;align=center;verticalAlign=middle;resizable=0;points=[];autosize=1;strokeColor=none;fillColor=none;" vertex="1" parent="1">
                    <mxGeometry x="214.9" y="1537" width="50" height="30" as="geometry"/>
                </mxCell>
                <mxCell id="186" value="10%" style="text;html=1;align=center;verticalAlign=middle;resizable=0;points=[];autosize=1;strokeColor=none;fillColor=none;" vertex="1" parent="1">
                    <mxGeometry x="359.9" y="1537" width="50" height="30" as="geometry"/>
                </mxCell>
                <mxCell id="187" value="タスク名&lt;br&gt;作成時間&lt;div&gt;100%&lt;/div&gt;" style="whiteSpace=wrap;html=1;fillColor=#6CC4FF;strokeColor=#9673a6;" vertex="1" parent="1">
                    <mxGeometry x="324.9" y="1410.69" width="120" height="60" as="geometry"/>
                </mxCell>
                <mxCell id="140" value="ゴミ箱" style="html=1;verticalLabelPosition=bottom;align=center;labelBackgroundColor=#ffffff;verticalAlign=top;strokeWidth=2;strokeColor=#0080F0;shadow=0;dashed=0;shape=mxgraph.ios7.icons.box;" parent="1" vertex="1">
                    <mxGeometry x="310" y="1447" width="30" height="23" as="geometry"/>
                </mxCell>
                <mxCell id="192" value="&lt;font style=&quot;font-size: 8px;&quot;&gt;編集確定&lt;/font&gt;" style="rounded=1;whiteSpace=wrap;html=1;fillColor=#d5e8d4;strokeColor=#82b366;align=right;" vertex="1" parent="1">
                    <mxGeometry x="1053.75" y="934.9999999999998" width="77.5" height="40" as="geometry"/>
                </mxCell>
                <mxCell id="193" value="" style="html=1;verticalLabelPosition=bottom;labelBackgroundColor=#ffffff;verticalAlign=top;shadow=0;dashed=0;strokeWidth=2;shape=mxgraph.ios7.misc.select;fillColor=#0080f0;strokeColor=#ffffff;sketch=0;" vertex="1" parent="1">
                    <mxGeometry x="1064.1" y="944.3099999999998" width="25" height="21.38" as="geometry"/>
                </mxCell>
                <mxCell id="195" value="タスクカードクリックで遷移" style="text;html=1;align=center;verticalAlign=middle;resizable=0;points=[];autosize=1;strokeColor=none;fillColor=none;" vertex="1" parent="1">
                    <mxGeometry x="530" y="965.69" width="180" height="30" as="geometry"/>
                </mxCell>
            </root>
        </mxGraphModel>
    </diagram>
</mxfile>